<?xml version="1.0" encoding="UTF-8" standalone="no"?>
<!-- Created with Inkscape (http://www.inkscape.org/) -->

<svg
   width="512"
   height="512"
   viewBox="0 0 135.46666 135.46667"
   version="1.1"
   id="svg5"
   inkscape:version="1.1 (c68e22c387, 2021-05-23)"
   sodipodi:docname="sharx.svg"
   xmlns:inkscape="http://www.inkscape.org/namespaces/inkscape"
   xmlns:sodipodi="http://sodipodi.sourceforge.net/DTD/sodipodi-0.dtd"
   xmlns="http://www.w3.org/2000/svg"
   xmlns:svg="http://www.w3.org/2000/svg">
  <sodipodi:namedview
     id="namedview7"
     pagecolor="#505050"
     bordercolor="#eeeeee"
     borderopacity="1"
     inkscape:pageshadow="0"
     inkscape:pageopacity="0"
     inkscape:pagecheckerboard="0"
     inkscape:document-units="mm"
     showgrid="false"
     width="512px"
     units="px"
     showguides="false"
     inkscape:zoom="1.5001964"
     inkscape:cx="286.29585"
     inkscape:cy="254.63333"
     inkscape:window-width="1920"
     inkscape:window-height="1030"
     inkscape:window-x="-8"
     inkscape:window-y="-8"
     inkscape:window-maximized="1"
     inkscape:current-layer="layer1" />
  <defs
     id="defs2">
    <style
       id="style9">.cls-1{fill:url(#radial-gradient)}.cls-2{fill:url(#radial-gradient-2)}.cls-3{fill:url(#radial-gradient-3)}.cls-4{fill:url(#radial-gradient-4)}.cls-5{fill:url(#radial-gradient-5)}.cls-6{fill:url(#radial-gradient-6)}.cls-7{fill:url(#radial-gradient-7)}.cls-8{fill:url(#radial-gradient-8)}</style>
    <radialGradient
       id="radial-gradient"
       cx="200"
       cy="-16032.74"
       r="157.31"
       gradientTransform="matrix(0.26458333,0,0,-0.26458426,1.5875008,-4200.5399)"
       gradientUnits="userSpaceOnUse">
      <stop
         offset="0"
         stop-color="#00bacf"
         id="stop11" />
      <stop
         offset="1"
         stop-color="#3675ff"
         id="stop13" />
    </radialGradient>
    <radialGradient
       id="radial-gradient-2"
       cx="200"
       cy="-16080.24"
       r="140.23"
       gradientTransform="matrix(0.26458333,0,0,-0.26458426,1.5875008,-4200.5399)"
       gradientUnits="userSpaceOnUse">
      <stop
         offset=".24"
         stop-color="#38a8eb"
         id="stop16" />
      <stop
         offset="1"
         stop-color="#2155c7"
         id="stop18" />
    </radialGradient>
    <radialGradient
       id="radial-gradient-3"
       cx="150.74001"
       cy="-16182"
       r="157.31"
       gradientTransform="matrix(0.26458333,0,0,-0.26458426,1.5875008,-4200.5399)"
       gradientUnits="userSpaceOnUse">
      <stop
         offset="0"
         stop-color="#ff5042"
         id="stop21" />
      <stop
         offset="1"
         stop-color="#f71812"
         id="stop23" />
    </radialGradient>
    <radialGradient
       id="radial-gradient-4"
       cx="198.24001"
       cy="-16182"
       r="140.23"
       gradientTransform="matrix(0.26458333,0,0,-0.26458426,1.5875008,-4200.5399)"
       gradientUnits="userSpaceOnUse">
      <stop
         offset=".4"
         stop-color="#d94343"
         id="stop26" />
      <stop
         offset="1"
         stop-color="#a00"
         id="stop28" />
    </radialGradient>
    <radialGradient
       id="radial-gradient-5"
       cx="300"
       cy="-16231.26"
       r="157.31"
       gradientTransform="matrix(0.26458333,0,0,-0.26458426,1.5875008,-4200.5399)"
       gradientUnits="userSpaceOnUse">
      <stop
         offset="0"
         stop-color="#f6ff00"
         id="stop31" />
      <stop
         offset="1"
         stop-color="#ffab00"
         id="stop33" />
    </radialGradient>
    <radialGradient
       id="radial-gradient-6"
       cx="300"
       cy="-16183.76"
       r="140.23"
       gradientTransform="matrix(0.26458333,0,0,-0.26458426,1.5875008,-4200.5399)"
       gradientUnits="userSpaceOnUse">
      <stop
         offset=".22"
         stop-color="#f7ff1e"
         id="stop36" />
      <stop
         offset="1"
         stop-color="#d6751d"
         id="stop38" />
    </radialGradient>
    <radialGradient
       id="radial-gradient-7"
       cx="349.26001"
       cy="-16082"
       r="157.31"
       gradientTransform="matrix(0.26458333,0,0,-0.26458426,1.5875008,-4200.5399)"
       gradientUnits="userSpaceOnUse">
      <stop
         offset="0"
         stop-color="#14e620"
         id="stop41" />
      <stop
         offset="1"
         stop-color="#00a822"
         id="stop43" />
    </radialGradient>
    <radialGradient
       id="radial-gradient-8"
       cx="301.76001"
       cy="-16082"
       r="140.23"
       gradientTransform="matrix(0.26458333,0,0,-0.26458426,1.5875008,-4200.5399)"
       gradientUnits="userSpaceOnUse">
      <stop
         offset=".21"
         stop-color="#59d941"
         id="stop46" />
      <stop
         offset="1"
         stop-color="#148200"
         id="stop48" />
    </radialGradient>
  </defs>
  <g
     inkscape:label="Layer 1"
     inkscape:groupmode="layer"
     id="layer1">
    <g
       id="g123"
       transform="rotate(-30,72.30378,-12.465111)">
      <path
         d="M 102.12917,48.31814 C 101.71906,30.73387 89.24925,15.774276 71.770875,9.744401 A 52.776437,52.776622 0 0 0 54.504167,6.8789535 c -26.302229,0 -47.6249996,18.9521705 -47.6249996,42.3334815 A 38.081479,38.081613 0 0 0 9.7446049,63.709007 C 15.787688,46.23057 30.734,33.760714 48.318209,33.33738 c 0.296333,0 0.595312,0 0.894291,0 10.19175,0 19.544771,4.05343 26.849917,10.805621 a 45.307249,45.307409 0 0 1 4.693708,5.069434 c 5.799666,7.284005 9.636125,16.589433 10.570104,26.86324 6.749521,-7.318401 10.802941,-16.671454 10.802941,-26.86324 0,-0.29898 0,-0.595314 0,-0.894295 z"
         class="cls-1"
         id="path55"
         style="fill:url(#radial-gradient);stroke-width:0.264584" />
      <path
         d="M 91.323583,74.739525 C 90.389604,64.465718 86.561083,55.160289 80.753479,47.876285 A 45.307249,45.307409 0 0 0 76.062417,42.820079 C 68.757271,36.067889 59.40425,32.014458 49.2125,32.014458 c -0.298979,0 -0.595312,0 -0.894291,0 C 30.734,32.424564 15.774459,44.89442 9.7446049,62.372856 A 38.1,38.100133 0 0 1 6.8791674,48.595954 c 0,0.206375 0,0.410105 0,0.616481 A 38.081479,38.081613 0 0 0 9.7446049,63.709007 C 15.787688,46.23057 30.734,33.760714 48.318209,33.33738 c 0.296333,0 0.595312,0 0.894291,0 10.19175,0 19.544771,4.05343 26.849917,10.805621 a 45.307249,45.307409 0 0 1 4.693708,5.069434 c 5.799666,7.284005 9.636125,16.589433 10.570104,26.86324 6.749521,-7.318401 10.802941,-16.671454 10.802941,-26.86324 0,-0.206376 0,-0.410106 0,-0.616481 -0.1905,9.919264 -4.209525,19.007733 -10.805587,26.143571 z"
         class="cls-2"
         id="path57"
         style="fill:url(#radial-gradient-2);stroke-width:0.264584" />
    </g>
    <g
       id="g127"
       transform="rotate(-30,-12.471574,63.154085)">
      <path
         d="m 33.3375,87.148526 c 0,-0.296334 0,-0.595314 0,-0.894294 0,-10.191786 4.053417,-19.54484 10.805584,-26.850011 C 51.903313,51.006316 63.227479,45.309817 76.062417,44.143001 68.757271,37.39081 59.40425,33.33738 49.2125,33.33738 c -0.298979,0 -0.595312,0 -0.894291,0 C 30.734,33.747485 15.774459,46.217341 9.7446049,63.695777 A 52.776437,52.776622 0 0 0 6.8791674,80.962546 c 0,26.302324 18.9521036,47.625164 42.3333326,47.625164 a 38.081479,38.081613 0 0 0 14.496521,-2.86544 C 46.230646,119.67916 33.760834,104.7328 33.3375,87.148526 Z"
         class="cls-3"
         id="path59"
         style="fill:url(#radial-gradient-3);stroke-width:0.264584" />
      <path
         d="m 33.3375,87.148526 c 0,-0.296334 0,-0.595314 0,-0.894294 0,-10.191786 4.053417,-19.54484 10.805584,-26.850011 C 51.903313,51.006316 63.227479,45.309817 76.062417,44.143001 68.757271,37.39081 59.40425,33.33738 49.2125,33.33738 c -0.206375,0 -0.410104,0 -0.616479,0 9.919229,0.182563 19.007666,4.201598 26.143479,10.795037 -12.834937,1.166817 -24.159104,6.863316 -31.919333,15.26122 -6.752167,7.315755 -10.805583,16.668809 -10.805583,26.860595 0,0.29898 0,0.595314 0,0.894294 0.410104,17.584274 12.879916,32.543864 30.358291,38.573744 a 38.1,38.100133 0 0 1 -13.776854,2.86544 c 0.206375,0 0.410104,0 0.616479,0 a 38.081479,38.081613 0 0 0 14.496521,-2.86544 C 46.230646,119.67916 33.760834,104.7328 33.3375,87.148526 Z"
         class="cls-4"
         id="path61"
         style="fill:url(#radial-gradient-4);stroke-width:0.264584" />
    </g>
    <g
       id="g131"
       transform="rotate(-30,63.162886,147.93839)">
      <path
         d="m 125.72206,71.75766 c -6.04308,17.478436 -20.98939,29.94829 -38.573602,30.37163 -0.296333,0 -0.595312,0 -0.894292,0 -10.191749,0 -19.54477,-4.053434 -26.849916,-10.805624 C 51.006375,83.56341 45.309896,72.239203 44.143084,59.404221 37.390917,66.709392 33.3375,76.062446 33.3375,86.254232 c 0,0.29898 0,0.595314 0,0.894294 0.410105,17.584274 12.879917,32.543864 30.358292,38.573744 a 52.776437,52.776622 0 0 0 17.266708,2.86544 c 26.30223,0 47.625,-18.95217 47.625,-42.333478 A 38.081479,38.081613 0 0 0 125.72206,71.75766 Z"
         class="cls-5"
         id="path63"
         style="fill:url(#radial-gradient-5);stroke-width:0.264584" />
      <path
         d="m 44.143084,60.727142 c 1.166812,12.834983 6.863291,24.159189 15.261166,31.919445 7.305146,6.752191 16.658167,10.805623 26.849916,10.805623 0.29898,0 0.595313,0 0.894292,0 17.584212,-0.41011 32.543752,-12.879963 38.573602,-30.3584 a 38.1,38.100133 0 0 1 2.86544,13.776903 c 0,-0.206376 0,-0.410106 0,-0.616481 A 38.081479,38.081613 0 0 0 125.72206,71.75766 c -6.04308,17.478436 -20.98939,29.94829 -38.573602,30.37163 -0.296333,0 -0.595312,0 -0.894292,0 -10.191749,0 -19.54477,-4.053434 -26.849916,-10.805624 C 51.006375,83.56341 45.309896,72.239203 44.143084,59.404221 37.390917,66.709392 33.3375,76.062446 33.3375,86.254232 c 0,0.206375 0,0.410105 0,0.616481 0.1905,-9.919264 4.209521,-19.007733 10.805584,-26.143571 z"
         class="cls-6"
         id="path65"
         style="fill:url(#radial-gradient-6);stroke-width:0.264584" />
    </g>
    <g
       id="g119"
       transform="rotate(-30,147.94727,72.303546)">
      <path
         d="M 86.254166,6.8789535 A 38.081479,38.081613 0 0 0 71.757646,9.744401 c 17.478375,6.043105 29.948184,20.989469 30.371524,38.573739 0,0.296335 0,0.595315 0,0.894295 0,10.191786 -4.05342,19.544839 -10.805587,26.850011 -7.760229,8.397904 -19.084396,14.094403 -31.919333,15.26122 7.305146,6.75219 16.658167,10.805624 26.849916,10.805624 0.29898,0 0.595313,0 0.894292,0 17.584212,-0.41011 32.543752,-12.879965 38.573602,-30.358401 A 52.776437,52.776622 0 0 0 128.5875,54.50412 c 0,-26.302321 -18.9521,-47.6251665 -42.333334,-47.6251665 z"
         class="cls-7"
         id="path67"
         style="fill:url(#radial-gradient-7);stroke-width:0.264584" />
      <path
         d="M 60.727167,91.323666 C 73.562104,90.156849 84.886271,84.46035 92.6465,76.062446 c 6.752166,-7.305172 10.80558,-16.658225 10.80558,-26.850011 0,-0.29898 0,-0.595314 0,-0.894295 C 103.04198,30.73387 90.572166,15.774276 73.093792,9.744401 A 38.1,38.100133 0 0 1 86.870646,6.8789535 c -0.206375,0 -0.410105,0 -0.61648,0 A 38.081479,38.081613 0 0 0 71.757646,9.744401 c 17.478375,6.043105 29.948184,20.989469 30.371524,38.573739 0,0.296335 0,0.595315 0,0.894295 0,10.191786 -4.05342,19.544839 -10.805587,26.850011 -7.760229,8.397904 -19.084396,14.094403 -31.919333,15.26122 7.305146,6.75219 16.658167,10.805624 26.849916,10.805624 0.206375,0 0.410105,0 0.61648,0 -9.919229,-0.1905 -19.007667,-4.209538 -26.143479,-10.805624 z"
         class="cls-8"
         id="path69"
         style="fill:url(#radial-gradient-8);stroke-width:0.264584" />
    </g>
    <circle
       style="fill:#000000;stroke-width:0.264583"
       id="path272"
       cx="45.540348"
       cy="5.0400372"
       r="1.7459322" />
    <circle
       style="fill:#000000;stroke-width:0.264583"
       id="circle354"
       cx="130.6955"
       cy="46.340263"
       r="1.7459322" />
    <circle
       style="fill:#000000;stroke-width:0.264583"
       id="circle356"
       cx="89.416664"
       cy="130.82022"
       r="1.7459322" />
    <circle
       style="fill:#000000;stroke-width:0.264583"
       id="circle358"
       cx="5.6119127"
       cy="89.790817"
       r="1.7459322" />
  </g>
</svg>
